<?xml version="1.0" encoding="UTF-8"?>
<svg id="Layer_2" data-name="Layer 2" xmlns="http://www.w3.org/2000/svg" viewBox="0 0 101.71 102.77">
  <defs>
    <style>
      .cls-1 {
        stroke-linejoin: round;
      }

      .cls-1, .cls-2 {
        fill: none;
        stroke: #000;
        stroke-linecap: round;
        stroke-width: 3px;
      }

      .cls-2 {
        stroke-miterlimit: 10;
      }
    </style>
  </defs>
  <g id="Outline">
    <g>
      <line class="cls-2" x1="1.5" y1="66.13" x2="100.21" y2="66.13"/>
      <path class="cls-2" d="m8.67,82.81c3.09-2.73,13.48-9.24,42.18-9.24s38.82,6.35,42.06,9.14"/>
      <path class="cls-1" d="m58.77,51.81c-1.26-1.02-2.96-1.49-4.46-2.49l1.36-15.13,23.36,3.63s.26-4.38-9.71-10.73v-5.01c0-1.09-.75-1.98-1.67-1.98h-3.62c-.92,0-1.67.89-1.67,1.98v1.95c-1.12-.69-5.11-2.27-6.39-2.94l-.96-15.64c0-2.18-1.77-3.95-3.95-3.95s-3.95,1.77-3.95,3.95l-.96,15.64c-.97.51-5.06,2.44-6.2,3.13v-2.14c0-1.09-.75-1.98-1.67-1.98h-3.62c-.92,0-1.67.89-1.67,1.98v5.19c-.22.14-.45.27-.67.41-10.62,6.47-9.23,10.14-9.23,10.14l23.36-3.63,1.36,15.13c-1.5.99-3.2,1.46-4.46,2.49-2.82,2.28-2.49,6.47-2.49,6.47l6.52-1.79h.07c0,4.07,7.26,4.07,7.26,0h.07l6.52,1.79s.32-4.19-2.49-6.47Z"/>
      <line class="cls-1" x1="15.1" y1="16.2" x2="15.1" y2="66.13"/>
      <line class="cls-1" x1="33.07" y1="74.62" x2="33.07" y2="101.27"/>
      <line class="cls-1" x1="33.07" y1="43.82" x2="33.07" y2="66.13"/>
      <path class="cls-1" d="m79.51,44.7c-1.08,5.89-2.83,10.91-4.65,15.55,0,0-1.11,2.34-2.47,5.88"/>
      <path class="cls-1" d="m91.67,25.68c2.93,12.06-1.46,23.6-6,34.57,0,0-2.02,4.36-2.9,5.88"/>
      <line class="cls-1" x1="24.07" y1="96" x2="24.07" y2="90.58"/>
      <line class="cls-1" x1="24.07" y1="81.91" x2="24.07" y2="76.49"/>
      <line class="cls-1" x1="24.07" y1="64.73" x2="24.07" y2="59.32"/>
      <line class="cls-1" x1="24.07" y1="50.64" x2="24.07" y2="45.23"/>
      <line class="cls-1" x1="24.07" y1="25.68" x2="24.07" y2="20.26"/>
      <path class="cls-1" d="m69.52,74.7c-2.12,7.18-2.77,14.59,1.35,25.29"/>
      <path class="cls-1" d="m79.51,76.68c-1.73,6.26-2.12,12.02.26,17.82"/>
    </g>
  </g>
</svg>