<?xml version="1.0" encoding="UTF-8"?>
<svg id="Layer_2" data-name="Layer 2" xmlns="http://www.w3.org/2000/svg" viewBox="0 0 129.86 132.99">
  <defs>
    <style>
      .cls-1 {
        fill: none;
        stroke: #000;
        stroke-linecap: round;
        stroke-linejoin: round;
        stroke-width: 3px;
      }
    </style>
  </defs>
  <g id="Outline">
    <path class="cls-1" d="m17.56,24.65C28.98,10.53,46.45,1.5,66.03,1.5c21.82,0,41.01,11.21,52.15,28.18"/>
    <path class="cls-1" d="m56.14,125.38C26.42,120.64,3.7,94.89,3.7,63.83c0-10.21,2.45-19.84,6.8-28.34"/>
    <path class="cls-1" d="m124.1,41.15c.65,1.66,1.23,3.36,1.74,5.09,1.58,5.39,2.46,11.08,2.51,16.97,0,.2,0,.41,0,.61,0,33.44-26.33,60.72-59.38,62.26"/>
    <g>
      <line class="cls-1" x1="10.49" y1="35.5" x2="1.5" y2="39.87"/>
      <line class="cls-1" x1="10.5" y1="35.49" x2="14.21" y2="44.77"/>
    </g>
    <g>
      <line class="cls-1" x1="118.2" y1="29.67" x2="118.58" y2="19.68"/>
      <line class="cls-1" x1="118.21" y1="29.68" x2="108.27" y2="28.59"/>
    </g>
    <g>
      <line class="cls-1" x1="68.99" y1="126.09" x2="77.4" y2="131.49"/>
      <line class="cls-1" x1="68.97" y1="126.09" x2="74.97" y2="118.08"/>
    </g>
  </g>
</svg>